<svg width="161" height="160" viewBox="0 0 161 160" fill="none" xmlns="http://www.w3.org/2000/svg">
<path fill-rule="evenodd" clip-rule="evenodd" d="M29.6207 47.9625L9.6207 80.4625C9.38762 80.8414 9.25984 81.2755 9.25055 81.7203C9.24126 82.165 9.35079 82.6042 9.56786 82.9924C9.78492 83.3807 10.1016 83.704 10.4854 83.929C10.8691 84.154 11.3059 84.2726 11.7507 84.2725H34.2507C34.9137 84.2725 35.5496 84.0091 36.0185 83.5403C36.4873 83.0714 36.7507 82.4355 36.7507 81.7725C36.7507 81.1094 36.4873 80.4736 36.0185 80.0047C35.5496 79.5359 34.9137 79.2725 34.2507 79.2725H16.2257L33.8807 50.5825C34.1978 50.0187 34.2844 49.3541 34.1222 48.7279C33.9599 48.1018 33.5616 47.5628 33.0106 47.2239C32.4597 46.8851 31.7989 46.7727 31.1669 46.9104C30.5349 47.0481 29.9808 47.4251 29.6207 47.9625Z" fill="#00AB0C"/>
<path fill-rule="evenodd" clip-rule="evenodd" d="M31.75 69.2725V104.272C31.75 104.936 32.0134 105.571 32.4822 106.04C32.9511 106.509 33.587 106.772 34.25 106.772C34.913 106.772 35.5489 106.509 36.0178 106.04C36.4866 105.571 36.75 104.936 36.75 104.272V69.2725C36.75 68.6094 36.4866 67.9736 36.0178 67.5047C35.5489 67.0359 34.913 66.7725 34.25 66.7725C33.587 66.7725 32.9511 67.0359 32.4822 67.5047C32.0134 67.9736 31.75 68.6094 31.75 69.2725ZM144.62 47.9625L124.62 80.4625C124.387 80.8414 124.259 81.2755 124.25 81.7203C124.241 82.165 124.35 82.6042 124.567 82.9924C124.784 83.3807 125.101 83.704 125.485 83.929C125.868 84.154 126.305 84.2726 126.75 84.2725H149.25C149.913 84.2725 150.549 84.0091 151.018 83.5403C151.487 83.0714 151.75 82.4355 151.75 81.7725C151.75 81.1094 151.487 80.4736 151.018 80.0047C150.549 79.5359 149.913 79.2725 149.25 79.2725H131.225L148.88 50.5825C149.197 50.0187 149.284 49.3541 149.121 48.7279C148.959 48.1018 148.561 47.5628 148.01 47.2239C147.459 46.8851 146.798 46.7727 146.166 46.9104C145.534 47.0481 144.98 47.4251 144.62 47.9625Z" fill="#00AB0C"/>
<path fill-rule="evenodd" clip-rule="evenodd" d="M146.75 69.2725V104.272C146.75 104.936 147.013 105.571 147.482 106.04C147.951 106.509 148.587 106.772 149.25 106.772C149.913 106.772 150.549 106.509 151.018 106.04C151.487 105.571 151.75 104.936 151.75 104.272V69.2725C151.75 68.6094 151.487 67.9735 151.018 67.5047C150.549 67.0359 149.913 66.7725 149.25 66.7725C148.587 66.7725 147.951 67.0359 147.482 67.5047C147.013 67.9735 146.75 68.6094 146.75 69.2725Z" fill="#00AB0C"/>
<path fill-rule="evenodd" clip-rule="evenodd" d="M48.6252 68.28C51.6127 66.555 56.5577 69.52 59.6627 74.8975C62.7677 80.275 62.8627 86.04 59.8752 87.765C56.8877 89.49 51.9427 86.525 48.8377 81.1475C45.7327 75.77 45.6377 70.005 48.6252 68.28ZM112.375 68.28C109.388 66.555 104.443 69.52 101.338 74.8975C98.2327 80.275 98.1377 86.04 101.125 87.765C104.113 89.49 109.058 86.525 112.163 81.1475C115.268 75.77 115.363 70.005 112.375 68.28Z" fill="#CADCF0"/>
<path fill-rule="evenodd" clip-rule="evenodd" d="M83 38.75C96.51 38.975 109.015 50.5275 108 71.25C107.375 83.97 99.4975 87.44 95.13 101.247C93 107.982 92.78 114.782 92.8575 118.462C92.8744 118.821 92.8135 119.178 92.6791 119.51C92.5447 119.843 92.3399 120.142 92.0789 120.387C91.8178 120.633 91.5066 120.819 91.1667 120.933C90.8269 121.047 90.4664 121.086 90.11 121.047C73.85 118.642 53 97.07 53 76.25C53 54.1725 66.445 38.4725 83 38.75Z" fill="#CADCF0"/>
<path fill-rule="evenodd" clip-rule="evenodd" d="M54.455 86.075C53.511 82.8845 53.0212 79.577 53 76.25C53 54.1725 66.445 38.4725 83 38.75C93.235 38.92 102.895 45.5925 106.532 57.8275C104.6 76.725 89.9475 91.4375 72.185 91.4375C65.705 91.4375 59.64 89.4775 54.455 86.075Z" fill="#E9F3FC"/>
<path d="M80.5 81.7725C83.2614 81.7725 85.5 78.4146 85.5 74.2725C85.5 70.1303 83.2614 66.7725 80.5 66.7725C77.7386 66.7725 75.5 70.1303 75.5 74.2725C75.5 78.4146 77.7386 81.7725 80.5 81.7725Z" fill="#738BAB"/>
<path fill-rule="evenodd" clip-rule="evenodd" d="M72.9057 57.1024C73.3582 58.7574 73.3857 61.5649 70.9132 63.2374C70.7693 63.3256 70.6448 63.4421 70.5471 63.5797C70.4494 63.7173 70.3806 63.8733 70.3448 64.0383C70.309 64.2032 70.307 64.3737 70.3389 64.5394C70.3708 64.7052 70.436 64.8627 70.5304 65.0026C70.6248 65.1425 70.7466 65.2618 70.8884 65.3534C71.0302 65.4449 71.1891 65.5068 71.3555 65.5353C71.5218 65.5638 71.6922 65.5583 71.8564 65.5191C72.0206 65.4799 72.1751 65.4079 72.3107 65.3074C75.9032 62.8824 75.9732 58.8474 75.3182 56.4449C75.231 56.125 75.0203 55.8528 74.7325 55.6883C74.4446 55.5237 74.1031 55.4802 73.7832 55.5674C73.4633 55.6546 73.1911 55.8653 73.0266 56.1532C72.862 56.4411 72.8185 56.7825 72.9057 57.1024ZM85.6832 56.4449C85.0282 58.8474 85.0982 62.8824 88.6907 65.3074C88.8263 65.4079 88.9809 65.4799 89.1451 65.5191C89.3092 65.5583 89.4796 65.5638 89.646 65.5353C89.8123 65.5068 89.9712 65.4449 90.113 65.3534C90.2548 65.2618 90.3766 65.1425 90.4711 65.0026C90.5655 64.8627 90.6306 64.7052 90.6625 64.5394C90.6944 64.3737 90.6924 64.2032 90.6567 64.0383C90.6209 63.8733 90.5521 63.7173 90.4544 63.5797C90.3567 63.4421 90.2321 63.3256 90.0882 63.2374C87.6157 61.5649 87.6432 58.7574 88.0957 57.1024C88.1829 56.7825 88.1394 56.4411 87.9749 56.1532C87.8934 56.0107 87.7846 55.8856 87.6548 55.7851C87.525 55.6846 87.3766 55.6106 87.2182 55.5674C86.8983 55.4802 86.5569 55.5237 86.269 55.6883C85.9811 55.8528 85.7704 56.125 85.6832 56.4449Z" fill="#738BAB"/>
</svg>
